<?xml version="1.0" standalone="no"?>
<!DOCTYPE svg PUBLIC "-//W3C//DTD SVG 20010904//EN"
 "http://www.w3.org/TR/2001/REC-SVG-20010904/DTD/svg10.dtd">
<svg version="1.0" xmlns="http://www.w3.org/2000/svg"
 width="1920.000000pt" height="1080.000000pt" viewBox="0 0 1920.000000 1080.000000"
 preserveAspectRatio="xMidYMid meet">
<metadata>
Created by potrace 1.16, written by Peter Selinger 2001-2019
</metadata>
<g transform="translate(0.000000,1080.000000) scale(0.100000,-0.100000)"
fill="#000000" stroke="none">
<path d="M1799 10773 c0 -27 -18 -37 -347 -200 -489 -241 -818 -428 -1215
-689 -111 -73 -198 -124 -213 -124 l-24 0 0 -4360 0 -4360 24 0 c15 0 102 -51
213 -124 397 -261 726 -448 1215 -689 329 -163 347 -173 347 -199 l1 -28 7800
0 7800 0 1 28 c0 26 18 36 347 199 489 241 818 428 1215 689 111 73 198 124
213 124 l24 0 0 4360 0 4360 -24 0 c-15 0 -102 51 -213 124 -397 261 -726 448
-1215 689 -329 163 -347 173 -347 200 l-1 27 -7800 0 -7800 0 -1 -27z m10316
-2783 c25 -24 27 -29 23 -105 -3 -76 -5 -83 -50 -150 -26 -38 -109 -144 -184
-235 -555 -668 -1170 -1478 -1739 -2290 -175 -249 -676 -996 -805 -1200 -116
-182 -161 -200 -514 -200 -145 0 -257 5 -281 11 -108 30 -197 196 -355 669
-122 363 -161 516 -167 655 -7 144 10 187 106 277 126 119 292 195 445 205
109 7 162 -6 212 -49 51 -45 76 -94 139 -273 60 -168 132 -335 146 -335 13 0
46 49 215 315 360 567 777 1176 1113 1625 293 391 656 839 744 916 97 86 239
149 399 179 50 9 144 13 300 12 l226 -2 27 -25z m-2155 -274 c229 -35 450
-102 653 -198 l127 -61 0 -56 c0 -56 -1 -57 -106 -193 l-105 -138 -53 0 c-41
0 -76 10 -162 49 -222 99 -416 144 -681 157 -364 18 -808 -102 -1133 -306
-355 -222 -658 -571 -806 -927 -94 -225 -144 -423 -165 -651 -34 -361 75 -805
283 -1150 178 -295 432 -547 731 -725 382 -229 883 -328 1292 -256 661 115
1224 536 1517 1134 204 418 259 843 167 1305 -49 246 -146 468 -293 673 -52
73 -56 82 -56 135 l0 58 112 132 111 132 52 0 52 0 75 -107 c280 -401 421
-810 449 -1302 32 -591 -100 -1097 -406 -1556 -389 -582 -990 -965 -1671
-1066 -134 -19 -175 -21 -453 -16 -244 4 -328 9 -416 25 -475 86 -907 306
-1257 640 -412 395 -659 879 -740 1452 -20 148 -17 604 6 755 22 146 72 346
120 480 49 137 160 357 247 490 394 606 1043 1014 1739 1094 52 6 109 13 125
15 74 10 545 -3 645 -18z"/>
</g>
</svg>
